{"title":"A Nightmare On Elm Street 2010 READNFO TS XViD IMAGiNE","uid":5548303,"size":1507833886,"categoryP":"video","categoryS":"movies","magnet":"?xt=urn:btih:f72309708d2d7cc03ba0d9050e206fc1184e6824&amp;dn=A+Nightmare+On+Elm+Street+2010+READNFO+TS+XViD+IMAGiNE&amp;tr=udp%3A%2F%2Ftracker.openbittorrent.com%3A80&amp;tr=udp%3A%2F%2Fopen.demonii.com%3A1337&amp;tr=udp%3A%2F%2Ftracker.coppersurfer.tk%3A6969&amp;tr=udp%3A%2F%2Fexodus.desync.com%3A6969","seeders":0,"leechers":0,"uploader":"TvTeam","files":6,"time":1273451299,"description":". \n  &lt;a href=&quot;\nhttp://www.torrentday.com&quot; rel=&quot;nofollow&quot; target=&quot;_NEW&quot;&gt;\nhttp://www.torrentday.com&lt;/a&gt;   -    Your Key To The Scene.\n\nNow TvTeam with [No-RAR] Releases.\n\n(((((((((((((= Enjoy No RAR releases =))))))))))))))))))))\n\n...................................NFO:....................................\n\n.      *********** ****    ****      ***      ******** *********** ****    *** **********\n           *+*     +*+*+* *+*+*+   *+* *+*   *+*    *+*    *+*     *+*+*   *+* *+*        \n           +*+     +*+ +*+*+ +*+  +*+   +*+  +*+           +*+     *+*+*+  +*+ +*+        \n           +$+     +$+  +*+  +$+ +$++*++$++* *$*           +$+     +$+ +*+ +$+ +$++*++$  \n           +$+     +$+       +$+ +$+     +$+ +$+   +$+$    +$+     +$+  +$+$+$ +$+        \n           $+$     $+$       $+$ $+$     $+$ $+$    $+$    $+$     $+$   $+$+$ $+$        \n       $$$$$$$$$$$ $$$       $$$ $$$     $$$  $$$$$$$$ $$$$$$$$$$$ $$$    $$$$ $$$$$$$$$$     \n                                                \n\n\n\n                           Another Fine Release Brought to you from - IMAGiNE                   \n                                                &lt;a href=&quot; http://imaginegroup.me/&quot; rel=&quot;nofollow&quot; target=&quot;_NEW&quot;&gt; http://imaginegroup.me/&lt;/a&gt;\n\n********************************************************************************************************************                                \n               A Nightmare On Elm Street 2010 READNFO TS XViD IMAGiNE\n********************************************************************************************************************\n\nRipper ...........: IMAGiNE                                        IMDB Rating.......:5.7/10                             \nVideo Codec.......: XVID                                         Release Date......:09/05/10\nAudio Codec.......:MP3                                           Theatre Date......:07/05/10\nAudio Bitrate.....:128                                              Runtime.......:1h 24mn\nSubtitles.........:NIL                                                 Language..........:ENGLISH\nResolution...... 720 x 288                                      IMDb URL..........:http://www.imdb.com/title/tt1179056/\n\n\n[color=yellow]DETAILS:[/color]\n\nVideo\nFormat                           : MPEG-4 Visual\nFormat profile                   : Streaming Video@L1\nFormat settings, BVOP            : Yes\nFormat settings, QPel            : No\nFormat settings, GMC             : No warppoints\nFormat settings, Matrix          : Default\nMuxing mode                      : Packed bitstream\nCodec ID                         : XVID\nCodec ID/Hint                    : XviD\nDuration                         : 1h 29mn\nBit rate                         : 2 065 Kbps\nWidth                            : 720 pixels\nHeight                           : 288 pixels\nDisplay aspect ratio             : 2.500\nFrame rate                       : 23.976 fps\nResolution                       : 24 bits\nColorimetry                      : 4:2:0\nScan type                        : Progressive\nBits/(Pixel*Frame)               : 0.415\nStream size                      : 1.29 GiB (94%)\nWriting library                  : XviD 50\n\nAudio\nFormat                           : MPEG Audio\nFormat version                   : Version 1\nFormat profile                   : Layer 3\nCodec ID                         : 55\nCodec ID/Hint                    : MP3\nDuration                         : 1h 29mn\nBit rate mode                    : Constant\nBit rate                         : 128 Kbps\nChannel(s)                       : 2 channels\nSampling rate                    : 44.1 KHz\nResolution                       : 16 bits\nVideo delay                      : 14ms\nStream size                      : 82.0 MiB (6%)\nAlignment                        : Split accross interleaves\nInterleave, duration             : 42 ms (1.00 video frame)\nInterleave, preload duration     : 500 ms\n\n[color=yellow]NOTES:[/color]\n\nIMAGiNE bringing you another release.....A Nightmare on Elm St\nWell here you go with a new source video and audio wise......\nWork done....well loads :P\nSharpness,contrast,rotating video,syncing,colour you name it......\nYes contrast is slightly off but if made any darker it would be too dark and any brighter would\nmake glares alot stronger so .....\n\nAnyway enjoy .....\nNext should be IM2 with new video inc eng subs hardcoded when needed :P\n\n\n[color=yellow]SCREENS:[/color]\n\n\n\n\n[/IMG]\n\n\n[color=yellow]GREETS:[/color]\n\nFLAWL3SS,ViSiON,FUSiON,Rx,SecretMyth,BirdFlu,ELEKTRI4KA\nAnd to all the other p2p grps past and present \n\n[COLOR=RED]Special shout out to Gamer for taking on the site ...cheers bro[/COLOR]\n\n\nSpecial thanks to Python-Lair for the server :)\nAnd special thanks to supreme-speeds.com for the ripbox :)\n\n[COLOR=RED]Looking for these,syncers,cammers,silver supplier.....Have anything to offer????......\nContact us &lt;a class=&quot;__cf_email__&quot; href=&quot;/cdn-cgi/l/email-protection&quot; data-cfemail=&quot;abc2c6caccc2c5ceccd9c4dedbebc3ded8c3c6cac2c785c8c4c6&quot;&gt;[email&amp;#160;protected]&lt;/a&gt;&lt;script cf-hash='f9e31' type=&quot;text/javascript&quot;&gt;\n/* &lt;![CDATA[ */!function(){try{var t=&quot;currentScript&quot;in document?document.currentScript:function(){for(var t=document.getElementsByTagName(&quot;script&quot;),e=t.length;e--;)if(t[e].getAttribute(&quot;cf-hash&quot;))return t[e]}();if(t&amp;&amp;t.previousSibling){var e,r,n,i,c=t.previousSibling,a=c.getAttribute(&quot;data-cfemail&quot;);if(a){for(e=&quot;&quot;,r=parseInt(a.substr(0,2),16),n=2;a.length-n;n+=2)i=parseInt(a.substr(n,2),16)^r,e+=String.fromCharCode(i);e=document.createTextNode(e),c.parentNode.replaceChild(e,c)}}}catch(u){}}();/* ]]&gt; */&lt;/script&gt;[/COLOR]","torrent":{"xt":"urn:btih:f72309708d2d7cc03ba0d9050e206fc1184e6824","amp;dn":"A+Nightmare+On+Elm+Street+2010+READNFO+TS+XViD+IMAGiNE","amp;tr":["udp%3A%2F%2Ftracker.openbittorrent.com%3A80","udp%3A%2F%2Fopen.demonii.com%3A1337","udp%3A%2F%2Ftracker.coppersurfer.tk%3A6969","udp%3A%2F%2Fexodus.desync.com%3A6969"],"infoHash":"f72309708d2d7cc03ba0d9050e206fc1184e6824","infoHashBuffer":{"type":"Buffer","data":[247,35,9,112,141,45,124,192,59,160,217,5,14,32,111,193,24,78,104,36]},"announce":[],"urlList":[]}}